cover
 
http://img32.imageshack.us/img32/9197/scottpilgrimvstheworldm.jpg

Genre:Action | Adventure | Comedy | Fantasy
Language:English
IMDb:http://www.imdb.com/title/tt0446029/
Source:DVDR-BLOW

General
Complete name :Scott.Pilgrim.Vs.The.World.2010.DvDRip.Ac3.Feel-Free
Format : AVI
Format/Info : Audio Video Interleave
File size : 1.05 GiB
Duration : 1h 52mn
Overall bit rate : 1 341 Kbps
Video #0
Muxing mode : Packed bitstream
Codec ID : XVID
Codec ID/Hint : XviD
Duration : 1h 52mn
Bit rate : 1 012 Kbps
Width : 652 pixels
Height : 352 pixels
Display aspect ratio : 1.852
Frame rate : 23.976 fps
Resolution : 24 bits
Colorimetry : 4:2:0
Scan type : Progressive
Bits/(Pixel*Frame) : 0.184
Stream size : 815 MiB (75%)
Writing library : XviD 1.2.1 (UTC 2008-12-04)
Audio #1
ID : 1
Format : AC-3
Format/Info : Audio Coding 3
Codec ID : 2000
Duration : 1h 52mn
Bit rate mode : Constant
Bit rate : 320 Kbps
Channel(s) : 6 channels
Channel positions : Front: L C R, Surround: L R, LFE
Sampling rate : 48.0 KHz
Stream size : 257 MiB (24%)
Alignment : Split accross interleaves
Interleave, duration : 42 ms (1.00 video frame)
Interleave, preload duration : 500 ms

Plot:
Scott Pilgrim must defeat his new girlfriend's seven evil exes in order to win her heart.


screens 
http://img688.imageshack.us/img688/7271/scottpilgrimvstheworld2.jpg 
http://img3.imageshack.us/img3/7271/scottpilgrimvstheworld2.jpg 
http://img576.imageshack.us/img576/7271/scottpilgrimvstheworld2.jpg 
http://img220.imageshack.us/img220/7271/scottpilgrimvstheworld2.jpg 
http://img576.imageshack.us/img576/2517/scottpilgrimvstheworld2f.jpghttp://img249.imageshack.us/img249/9854/scottpilgrimvstheworld2g.jpg